<?xml version="1.0" standalone="no"?>
<!DOCTYPE svg PUBLIC "-//W3C//DTD SVG 20010904//EN"
 "http://www.w3.org/TR/2001/REC-SVG-20010904/DTD/svg10.dtd">
<svg version="1.0" xmlns="http://www.w3.org/2000/svg"
 width="1536.000000pt" height="1024.000000pt" viewBox="0 0 1536.000000 1024.000000"
 preserveAspectRatio="xMidYMid meet">

<g transform="translate(0.000000,1024.000000) scale(0.100000,-0.100000)"
fill="#000000" stroke="none">
<path d="M6850 8460 c-559 -46 -1108 -382 -1522 -932 -596 -790 -873 -1760
-778 -2718 47 -472 211 -921 461 -1257 289 -389 746 -683 1179 -758 52 -9 103
-19 113 -23 13 -5 28 -36 46 -92 117 -364 466 -712 878 -874 133 -53 261 -77
412 -77 193 -1 314 28 469 113 225 123 434 371 506 601 4 14 17 17 69 17 74 0
155 13 252 42 289 85 517 321 611 633 25 81 27 106 28 247 l1 156 79 12 c272
40 510 193 647 414 200 325 240 790 108 1244 -32 109 -75 226 -109 291 l-19
38 73 144 c137 271 231 556 257 776 22 183 2 405 -51 565 -54 162 -178 353
-289 446 -214 180 -675 379 -1546 668 -513 170 -1023 284 -1415 318 -124 11
-365 14 -460 6z m447 -145 c432 -46 898 -153 1413 -325 677 -226 1098 -395
1347 -542 291 -171 462 -547 422 -931 -36 -357 -182 -702 -598 -1412 -155
-265 -305 -375 -513 -375 -204 0 -389 106 -513 294 -101 154 -165 403 -165
639 0 259 56 493 190 787 67 148 73 169 54 177 -21 8 -91 -62 -166 -164 -33
-46 -61 -83 -63 -83 -1 0 -22 7 -46 15 -34 12 -201 45 -230 45 -3 0 -9 35 -13
78 -7 93 -37 204 -72 275 -33 66 -52 87 -77 87 -21 0 -21 -12 2 -145 82 -466
-99 -1029 -453 -1404 -118 -124 -322 -254 -494 -312 -172 -59 -247 -71 -497
-76 -239 -5 -426 8 -595 44 -100 21 -104 21 -108 1 -5 -23 43 -46 203 -98 161
-52 241 -68 412 -80 357 -25 659 37 899 186 l80 51 -14 -51 c-8 -29 -15 -102
-16 -169 -1 -100 -3 -116 -16 -111 -8 3 -45 11 -83 17 -270 43 -572 -172 -698
-497 -37 -97 -57 -193 -62 -301 l-4 -85 -84 -51 c-154 -92 -295 -254 -364
-417 -48 -116 -67 -204 -74 -343 l-6 -126 -70 14 c-38 8 -129 34 -201 58 -504
166 -915 555 -1137 1076 -249 584 -282 1322 -92 2054 152 585 493 1198 890
1600 295 299 601 484 944 570 182 46 414 56 668 30z m1289 -2051 l62 -16 -14
-41 c-24 -68 -51 -185 -69 -298 l-17 -106 -77 5 c-58 3 -90 -1 -134 -16 -51
-17 -57 -17 -51 -3 59 140 111 326 121 438 l6 65 55 -6 c30 -4 83 -14 118 -22z
m-69 -600 l30 -6 6 -111 c14 -258 97 -495 231 -662 149 -187 367 -298 581
-298 231 1 410 101 552 310 50 74 215 358 265 457 l15 29 32 -76 c77 -185 115
-393 115 -627 0 -237 -33 -390 -119 -565 -104 -209 -271 -347 -492 -407 -103
-27 -291 -29 -416 -5 -318 64 -731 232 -992 405 -379 251 -537 501 -495 784
23 159 94 313 228 491 86 114 170 193 253 237 91 48 136 58 206 44z m-842
-1096 c33 -11 45 -22 71 -72 17 -32 57 -95 90 -139 253 -342 883 -677 1499
-796 l90 -18 7 -39 c13 -73 8 -199 -12 -289 -62 -281 -262 -499 -535 -585
-108 -34 -287 -39 -432 -11 -310 59 -615 190 -878 375 -148 105 -363 323 -453
460 -118 179 -160 317 -149 495 9 156 61 293 162 426 76 100 156 157 275 197
63 21 196 19 265 -4z m-747 -1063 c242 -478 858 -900 1494 -1025 l58 -11 -37
-72 c-54 -109 -93 -164 -173 -250 -122 -131 -265 -218 -422 -259 -117 -30
-300 -30 -420 0 -250 62 -477 199 -679 408 -141 148 -237 315 -281 490 -30
123 -30 305 1 419 53 195 160 350 316 453 l60 40 21 -56 c12 -31 39 -93 62
-137z"/>
<path d="M9083 6803 c9 -2 25 -2 35 0 9 3 1 5 -18 5 -19 0 -27 -2 -17 -5z"/>
<path d="M8758 6773 c7 -3 16 -2 19 1 4 3 -2 6 -13 5 -11 0 -14 -3 -6 -6z"/>
<path d="M8668 6763 c6 -2 18 -2 25 0 6 3 1 5 -13 5 -14 0 -19 -2 -12 -5z"/>
<path d="M8593 6753 c9 -2 23 -2 30 0 6 3 -1 5 -18 5 -16 0 -22 -2 -12 -5z"/>
<path d="M8407 6743 c18 -2 50 -2 70 0 21 2 7 4 -32 4 -38 0 -55 -2 -38 -4z"/>
<path d="M5072 5100 c0 -19 2 -27 5 -17 2 9 2 25 0 35 -3 9 -5 1 -5 -18z"/>
<path d="M7580 4954 c-135 -77 -370 -151 -485 -155 -28 -1 -34 -3 -19 -7 12
-4 20 -14 18 -22 -10 -45 -8 -55 14 -65 24 -11 28 -20 10 -31 -7 -4 -8 -3 -4
4 4 7 3 12 -3 12 -21 0 -20 -18 3 -43 l23 -25 -26 -27 c-15 -16 -3 -10 29 15
126 98 273 147 413 137 45 -3 89 -8 98 -12 14 -5 17 9 22 117 3 68 8 131 12
141 10 24 1 21 -105 -39z m-477 -219 c-3 -9 -8 -14 -10 -11 -3 3 -2 9 2 15 9
16 15 13 8 -4z m65 -91 c-13 -13 -20 -14 -34 -4 -13 8 -14 10 -3 7 9 -3 22 -1
30 4 22 14 25 11 7 -7z"/>
<path d="M6908 4783 c6 -2 18 -2 25 0 6 3 1 5 -13 5 -14 0 -19 -2 -12 -5z"/>
<path d="M6968 4783 c6 -2 18 -2 25 0 6 3 1 5 -13 5 -14 0 -19 -2 -12 -5z"/>
<path d="M6520 4746 c0 -2 8 -10 18 -17 15 -13 16 -12 3 4 -13 16 -21 21 -21
13z"/>
<path d="M6560 4716 c0 -2 8 -10 18 -17 15 -13 16 -12 3 4 -13 16 -21 21 -21
13z"/>
<path d="M7081 4691 c-7 -5 -12 -14 -10 -20 2 -6 10 -2 17 9 14 22 13 23 -7
11z"/>
<path d="M6600 4686 c0 -2 8 -10 18 -17 15 -13 16 -12 3 4 -13 16 -21 21 -21
13z"/>
<path d="M6640 4656 c0 -2 8 -10 18 -17 15 -13 16 -12 3 4 -13 16 -21 21 -21
13z"/>
<path d="M6405 3728 l-60 -63 63 60 c58 55 67 65 59 65 -1 0 -29 -28 -62 -62z"/>
<path d="M5500 3706 c0 -2 8 -10 18 -17 15 -13 16 -12 3 4 -13 16 -21 21 -21
13z"/>
<path d="M5540 3657 c0 -2 15 -16 33 -33 l32 -29 -29 33 c-28 30 -36 37 -36
29z"/>
<path d="M8410 6157 c-13 -67 -38 -169 -56 -227 -18 -58 -27 -98 -21 -89 11
15 16 15 37 4 22 -12 22 -13 4 -17 -10 -2 22 -4 72 -4 l91 -1 21 121 c12 67
32 159 46 206 16 56 21 87 14 91 -10 6 -80 21 -154 33 l-31 5 -23 -122z"/>
<path d="M8660 4845 c13 -14 26 -25 28 -25 3 0 -5 11 -18 25 -13 14 -26 25
-28 25 -3 0 5 -11 18 -25z"/>
<path d="M8730 4776 c0 -2 8 -10 18 -17 15 -13 16 -12 3 4 -13 16 -21 21 -21
13z"/>
<path d="M8850 4696 c0 -3 9 -10 20 -16 11 -6 20 -8 20 -6 0 3 -9 10 -20 16
-11 6 -20 8 -20 6z"/>
<path d="M8520 4085 c13 -14 26 -25 28 -25 3 0 -5 11 -18 25 -13 14 -26 25
-28 25 -3 0 5 -11 18 -25z"/>
</g>
</svg>
