<?xml version="1.0" standalone="no"?>
<!DOCTYPE svg PUBLIC "-//W3C//DTD SVG 20010904//EN"
 "http://www.w3.org/TR/2001/REC-SVG-20010904/DTD/svg10.dtd">
<svg version="1.0" xmlns="http://www.w3.org/2000/svg"
 width="1536.000000pt" height="1024.000000pt" viewBox="0 0 1536.000000 1024.000000"
 preserveAspectRatio="xMidYMid meet">

<g transform="translate(0.000000,1024.000000) scale(0.100000,-0.100000)"
fill="#000000" stroke="none">
<path d="M7670 8184 c-19 -2 -80 -9 -135 -15 -274 -29 -691 -115 -1015 -209
-208 -60 -632 -200 -795 -263 -398 -152 -450 -173 -644 -256 -189 -81 -227
-101 -344 -178 -294 -194 -432 -428 -444 -758 -10 -258 52 -478 233 -833 l66
-130 -26 -38 c-69 -101 -147 -338 -181 -544 -19 -121 -20 -384 0 -510 48 -319
221 -564 490 -696 90 -44 222 -84 278 -84 24 0 28 -3 22 -17 -4 -10 -10 -72
-12 -139 -6 -140 11 -247 58 -361 123 -294 450 -503 829 -529 l96 -6 18 -44
c44 -106 159 -250 284 -353 275 -229 589 -323 941 -282 423 50 826 333 1031
726 36 69 38 70 86 78 326 55 501 109 740 227 475 235 820 569 1053 1021 116
225 193 462 233 723 17 114 22 186 22 381 1 381 -54 691 -189 1065 -238 664
-737 1323 -1274 1681 -252 168 -527 277 -821 325 -91 15 -516 28 -600 18z
m634 -143 c392 -69 771 -286 1136 -651 274 -273 540 -660 703 -1024 136 -302
210 -557 264 -906 24 -161 24 -539 0 -700 -76 -493 -263 -879 -592 -1219 -300
-310 -649 -514 -1055 -616 -104 -26 -248 -50 -255 -43 -2 2 1 22 7 44 7 22 12
107 13 199 0 172 -11 237 -62 359 -88 211 -268 374 -460 417 l-54 12 6 41 c8
57 -17 188 -52 271 -121 283 -402 506 -669 531 l-69 6 3 102 c2 61 -2 128 -11
169 -7 37 -13 67 -11 67 1 0 26 -16 55 -36 146 -100 407 -197 614 -229 149
-24 485 -16 622 13 176 38 363 109 363 138 0 17 2 17 -118 -1 -359 -53 -665
-62 -876 -26 -399 70 -725 284 -988 649 -103 142 -182 332 -213 506 -20 116
-20 355 1 514 9 68 13 126 9 130 -13 13 -55 -54 -86 -138 -17 -47 -38 -133
-46 -191 l-16 -105 -46 -3 c-25 -1 -77 -6 -116 -11 -38 -5 -95 -9 -125 -9 -55
0 -55 0 -150 84 -52 47 -99 85 -103 85 -12 0 1 -35 46 -125 53 -106 112 -282
143 -430 37 -172 44 -421 16 -555 -60 -290 -235 -511 -461 -580 -124 -39 -281
-19 -389 47 -155 96 -328 330 -583 793 -178 323 -225 438 -265 636 -24 117
-21 327 5 429 60 232 223 417 489 553 55 29 200 93 323 143 1001 406 1749 618
2394 678 169 16 522 6 659 -18z m-1789 -2116 c15 -49 41 -120 58 -157 18 -37
27 -62 21 -57 -33 27 -181 51 -255 40 l-57 -7 -12 75 c-7 42 -27 136 -46 210
-18 74 -32 136 -31 136 1 1 63 8 137 16 l135 14 12 -90 c7 -49 24 -130 38
-180z m28 -325 c198 -61 412 -307 472 -540 55 -214 9 -398 -144 -577 -205
-239 -488 -403 -971 -561 -453 -148 -663 -170 -888 -93 -117 41 -185 84 -283
182 -72 71 -94 101 -133 180 -58 119 -85 223 -94 369 -19 302 32 600 137 809
l27 53 64 -108 c249 -423 400 -581 625 -655 89 -30 239 -32 329 -5 207 61 390
218 493 421 60 117 107 313 115 480 3 47 5 50 33 56 62 13 154 9 218 -11z
m752 -985 c227 -58 456 -290 510 -517 30 -128 12 -247 -57 -383 -118 -231
-301 -428 -558 -598 -210 -140 -558 -285 -805 -337 -363 -76 -692 4 -906 220
-137 138 -195 295 -186 505 2 61 8 118 12 127 4 11 23 19 53 23 220 28 628
148 897 264 422 182 729 423 854 669 21 41 22 42 74 42 29 0 80 -7 112 -15z
m773 -875 c146 -68 270 -244 313 -445 21 -101 15 -274 -14 -387 -107 -408
-488 -749 -932 -834 -120 -22 -315 -22 -420 0 -268 58 -534 237 -683 460 -57
86 -60 96 -35 96 37 0 310 73 416 111 157 57 393 174 517 257 327 218 577 490
676 735 l19 48 40 -6 c22 -3 68 -19 103 -35z"/>
<path d="M7170 5056 c0 -2 7 -7 16 -10 8 -3 12 -2 9 4 -6 10 -25 14 -25 6z"/>
<path d="M7182 4995 c0 -16 2 -22 5 -12 2 9 2 23 0 30 -3 6 -5 -1 -5 -18z"/>
<path d="M7260 5006 c0 -3 9 -10 20 -16 11 -6 20 -8 20 -6 0 3 -9 10 -20 16
-11 6 -20 8 -20 6z"/>
<path d="M7330 4966 c0 -2 7 -7 16 -10 8 -3 12 -2 9 4 -6 10 -25 14 -25 6z"/>
<path d="M7233 4773 c9 -2 25 -2 35 0 9 3 1 5 -18 5 -19 0 -27 -2 -17 -5z"/>
<path d="M7308 4763 c7 -3 16 -2 19 1 4 3 -2 6 -13 5 -11 0 -14 -3 -6 -6z"/>
<path d="M6373 6163 c9 -2 23 -2 30 0 6 3 -1 5 -18 5 -16 0 -22 -2 -12 -5z"/>
<path d="M6273 6153 c9 -2 25 -2 35 0 9 3 1 5 -18 5 -19 0 -27 -2 -17 -5z"/>
<path d="M6210 6141 c0 -5 9 -7 20 -4 11 3 20 7 20 9 0 2 -9 4 -20 4 -11 0
-20 -4 -20 -9z"/>
<path d="M6452 6115 c0 -16 2 -22 5 -12 2 9 2 23 0 30 -3 6 -5 -1 -5 -18z"/>
<path d="M6462 6050 c0 -14 2 -19 5 -12 2 6 2 18 0 25 -3 6 -5 1 -5 -13z"/>
<path d="M6251 5994 c0 -11 3 -14 6 -6 3 7 2 16 -1 19 -3 4 -6 -2 -5 -13z"/>
<path d="M6471 5994 c0 -11 3 -14 6 -6 3 7 2 16 -1 19 -3 4 -6 -2 -5 -13z"/>
<path d="M6357 5773 c18 -2 50 -2 70 0 21 2 7 4 -32 4 -38 0 -55 -2 -38 -4z"/>
</g>
</svg>
